<?xml version="1.0"?>
<svg xmlns:rdf="http://www.w3.org/1999/02/22-rdf-syntax-ns#" xmlns="http://www.w3.org/2000/svg" xmlns:cc="http://creativecommons.org/ns#" xmlns:xlink="http://www.w3.org/1999/xlink" xmlns:dc="http://purl.org/dc/elements/1.1/" xmlns:svg="http://www.w3.org/2000/svg" id="svg2" viewBox="0 0 768 768" version="1.1">
  <defs id="defs4">
    <clipPath id="clipPathFlag" clipPathUnits="userSpaceOnUse">
      <rect id="rect3918" fill-opacity=".67" ry="57" height="511" width="511" y=".5" x=".5"/>
    </clipPath>
    <linearGradient id="linearGradient3852-0">
      <stop id="stop3854-6" stop-color="#dbe3db" offset="0"/>
      <stop id="stop3856-1" stop-color="#dbe3db" stop-opacity="0" offset="1"/>
    </linearGradient>
    <linearGradient id="linearGradient5122" x1="342.19" xlink:href="#linearGradient3852-0" gradientUnits="userSpaceOnUse" y1="705.76" gradientTransform="matrix(1.1571 0 0 1.3167 -91.204 -253.99)" x2="358.08" y2="523.41"/>
    <linearGradient id="linearGradient5125" x1="405.26" xlink:href="#linearGradient3852-0" gradientUnits="userSpaceOnUse" y1="118.06" gradientTransform="matrix(.95303 0 0 .86647 11.575 -4.5016)" x2="405.75" y2="360.92"/>
    <filter id="filter5740">
      <feGaussianBlur id="feGaussianBlur5742" stdDeviation="5.12"/>
    </filter>
    <clipPath id="clipPath5796" clipPathUnits="userSpaceOnUse">
      <rect id="rect5798" ry="57" height="512" width="512" stroke="#00fa00" y="0" x="0" stroke-width="20" fill="none"/>
    </clipPath>
    <filter id="filter5912">
      <feGaussianBlur id="feGaussianBlur5914" stdDeviation="17.92"/>
    </filter>
  </defs>
  <g id="template-button">&gt;
  <g id="00" transform="translate(90,90)"><rect id="shadow" ry="57" height="512" filter="url(#filter5912)" width="512" stroke="#a8a8a8" y="56" x="38" stroke-width="5"/></g>
  <g id="01" transform="translate(128,128)" clip-path="url(#clipPathFlag)"><rect id="mask" ry="57" height="512" width="512" y="0" x="0" fill="#00f"/><g id="flag" transform="matrix(1.0321 0 0 1.0321 -128 .000011843)" clip-path="url(#clipPath8790)"><g id="g709" transform="translate(0 -.000015259)"><rect id="rect704" fill-rule="evenodd" height="124.02" width="744.09" y="372.05" x="0" stroke-width="1pt" fill="#f00"/><rect id="rect707" fill-rule="evenodd" height="124.02" width="744.09" y="0" x="0" stroke-width="1pt" fill="#f00"/><rect id="rect708" fill-rule="evenodd" height="248.03" width="744.09" y="124.02" x="0" stroke-width="1pt" fill="#fff"/></g><path id="selection_to_path" fill="#007900" d="m368.26 125.9c-7.567 15.108-12.613 15.108-25.224 25.181-5.044 5.036-12.611 7.554-2.522 12.591-10.089 5.035-15.134 7.554-20.179 17.626l2.522 2.518s9.587-4.699 10.09-2.518c1.677 2.013-12.619 9.738-14.464 10.912s-10.76 6.715-10.76 6.715c-12.611 10.072-20.179 7.553-27.746 22.662l25.224-2.517c5.045 17.626-12.612 20.144-25.224 27.698l-20.179 12.591c5.046 17.626 20.179 7.554 32.791 2.517l2.523 2.519v5.036l-25.224 12.591s-29.776 17.037-30.268 17.626c-0.203 0.912 0 5.036 0 5.036 10.089 2.518 25.224 5.037 35.313 0 12.611-5.036 15.133-10.072 30.268-10.072-17.657 12.59-30.268 17.627-50.447 20.144v10.073c15.134 0 25.223 0 37.835-2.518l32.791-10.072c7.567 0 15.134 7.554 12.612 15.108-7.567 27.698-37.836 22.663-47.926 45.325l40.359-15.108c10.089-5.036 20.178-10.072 32.79-7.554 15.134 5.035 15.134 15.109 35.313 20.144l-5.044-12.59c5.044 2.518 10.089 2.518 15.133 5.036 12.613 5.037 15.135 10.072 30.268 7.554-12.611-15.109-15.133-12.59-25.223-22.662-10.089-15.109-15.134-37.771 0-40.29l17.657 5.037c17.656 2.517 17.656-2.518 42.879 7.554 15.135 5.036 20.18 12.59 37.836 7.554-7.567-17.626-35.313-30.217-52.969-35.253 20.178-12.591 15.133 5.036 42.879-2.519v-5.035c-20.178-15.109-27.746-27.699-55.492-27.699 0 0 42.881-5.037 42.881-5.037v-5.036s-42.29-11.095-43.274-11.489c0.295-1.278 1.329-3.261 4.137-4.357 8.031 5.199 32.319 4.593 33.698 4.495-0.71-6.196-12.218-11.312-22.307-16.347 0 0-43.201-26.628-43.416-28.985 0.857-6.749 17.744 1.072 35.849 6.321-5.045-10.072-15.135-15.108-25.224-17.626l15.134-2.518c-10.089-22.663-35.313-20.145-50.446-30.217-10.091-7.554-10.091-12.591-25.224-20.145z"/><path id="path593" stroke-linejoin="round" d="m341.01 293.63c1.872-6.001 4.337-11.311-6.895-16.426-11.233-5.114 5.614 20.457 6.895 16.426z" fill-rule="evenodd" stroke="#fff" stroke-linecap="round" stroke-width="3.1188" fill="#fff"/><path id="path594" stroke-linejoin="round" d="m354.31 281.63c-2.264 0.295-3.45 8.56 1.082 10.821 5.027 0.785 0.889-10.722-1.082-10.821z" fill-rule="evenodd" stroke="#fff" stroke-linecap="round" stroke-width="3.1188" fill="#fff"/><path id="path595" stroke-linejoin="round" d="m367.42 280.75c-2.366 0.69-2.464 12.296 5.814 10.231 8.276-2.064-0.101-11.213-5.814-10.231z" fill-rule="evenodd" stroke="#fff" stroke-linecap="round" stroke-width="3.1188" fill="#fff"/><path id="path597" stroke-linejoin="round" d="m382.69 250.94c1.773-2.853-0.098-14.557-7.194-9.64-7.093 4.919 4.927 10.427 7.194 9.64z" fill-rule="evenodd" stroke="#fff" stroke-linecap="round" stroke-width="3.1188" fill="#fff"/><path id="path598" stroke-linejoin="round" d="m367.22 241.21c2.169-0.787 2.366-7.967-3.841-6.098-6.205 1.869 2.169 7.574 3.841 6.098z" fill-rule="evenodd" stroke="#fff" stroke-linecap="round" stroke-width="3.1188" fill="#fff"/><path id="path599" stroke-linejoin="round" d="m353.23 244.06s-4.336-6-7.686-4.722c-4.237 4.033 7.981 4.82 7.686 4.722z" fill-rule="evenodd" stroke="#fff" stroke-linecap="round" stroke-width="3.1188" fill="#fff"/><path id="path600" stroke-linejoin="round" d="m305.18 263.23c1.846 0.168 15.528-2.256 20.257-7.567 4.729-5.312-24.345 2.273-24.345 2.371s2.747 4.693 4.088 5.196z" fill-rule="evenodd" stroke="#fff" stroke-linecap="round" stroke-width="3.1188" fill="#fff"/><path id="path601" stroke-linejoin="round" d="m441.91 229.36c0.705-1.255-7.283-6.949-12.03-4.705-1.222 4.204 11.99 5.569 12.03 4.705z" fill-rule="evenodd" stroke="#fff" stroke-linecap="round" stroke-width="3.1188" fill="#fff"/><path id="path602" stroke-linejoin="round" d="m415 215.83c1.479-2.164-3.447-11.016-13.3-6.098s10.344 9.541 13.3 6.098z" fill-rule="evenodd" stroke="#fff" stroke-linecap="round" stroke-width="3.1188" fill="#fff"/><path id="path603" stroke-linejoin="round" d="m383.87 210.62s2.462-7.967 8.375-6.394c6.701 5.116-8.08 6.69-8.375 6.394z" fill-rule="evenodd" stroke="#fff" stroke-linecap="round" stroke-width="3.1188" fill="#fff"/><path id="path604" stroke-linejoin="round" d="m378.06 204.62c-0.888-2.262-7.095-0.885-14.188 3.738-7.096 4.623 16.355 1.378 14.188-3.738z" fill-rule="evenodd" stroke="#fff" stroke-linecap="round" stroke-width="3.1188" fill="#fff"/><path id="path605" stroke-linejoin="round" d="m396.19 183.17s6.32-2.829 8.178 0c2.661 4.23-8.276 0.099-8.178 0z" fill-rule="evenodd" stroke="#fff" stroke-linecap="round" stroke-width="3.1188" fill="#fff"/><path id="path606" stroke-linejoin="round" d="m390.88 180.41c-1.281-2.558-8.274-2.8-8.095 0.896-1.172 2.896 9.088 2.357 8.095-0.896z" fill-rule="evenodd" stroke="#fff" stroke-linecap="round" stroke-width="3.1188" fill="#fff"/><path id="path607" stroke-linejoin="round" d="m374.21 180.42c-0.689-1.476-10.638 0.028-13.595 6 4.746 2.308 15.765-2.262 13.595-6z" fill-rule="evenodd" stroke="#fff" stroke-linecap="round" stroke-width="3.1188" fill="#fff"/><path id="path608" stroke-linejoin="round" d="m352.93 186.52s-13.089 8.002-13.893 13.869c0.397 5.066 16.256-9.148 16.256-9.148s1.38-5.607-2.363-4.721z" fill-rule="evenodd" stroke="#fff" stroke-linecap="round" stroke-width="3.1188" fill="#fff"/><path id="path609" stroke-linejoin="round" d="m338.45 179.24c0.366-1.628 6.467-5.399 6.995-5.115 0.494 1.641-4.983 6.083-6.995 5.115z" fill-rule="evenodd" stroke="#fff" stroke-linecap="round" stroke-width="3.1188" fill="#fff"/><path id="path610" stroke-linejoin="round" d="m342.59 209.83c0.295-2.361-15.568-2.165-9.557 5.114 5.005 6.105 10.642-4.032 9.557-5.114z" fill-rule="evenodd" stroke="#fff" stroke-linecap="round" stroke-width="3.1188" fill="#fff"/><path id="path611" stroke-linejoin="round" d="m328.14 220.28c-0.827-1.596-2.017-5.85-4.189-6.242-1.77-0.099-11.309 1.868-12.038 3.483-0.394 1.279 3.948 9.141 5.427 9.338 1.675 0.688 10.505-5.792 10.8-6.579z" fill-rule="evenodd" stroke="#fff" stroke-linecap="round" stroke-width="3.1188" fill="#fff"/><path id="path612" stroke-linejoin="round" d="m413.72 273.66c0.492-1.671 16.702-7.273 22.299-1.915 6.6 9.05-22.692 4.769-22.299 1.915z" fill-rule="evenodd" stroke="#fff" stroke-linecap="round" stroke-width="3.1188" fill="#fff"/><path id="path613" stroke-linejoin="round" d="m458.28 284.26c3.552-6.011-10.907-13.137-17.044-6.269 2.098 8.252 14.173 11.239 17.044 6.269z" fill-rule="evenodd" stroke="#fff" stroke-linecap="round" stroke-width="3.1188" fill="#fff"/></g></g>
  <g id="02" transform="translate(0,38)"><path id="path3862-8" style="color:#000000" fill="url(#linearGradient5125)" d="m214.21 111.21c-45.245 0.18809-68.716 7.7308-64.094 83.553l2.8252 46.345c47.474 5.5124 56.664 18.445 104.36 21.914 68.073 4.9513 67.937 5.4209 130.56-14.384 62.628-19.805 5.8248-65.247 207.32-57.82 4.6033 0.16968 17.314-3.0527 27.462-12.15 5.5817-46.524-2.7842-69.143-66.934-68.876z"/><path id="path3079-9" style="color:#000000" fill="url(#linearGradient5122)" d="m531.03 495.17c-31.605 19.022-27.601 31.26-37.913 32.573-94.704 12.053-145.98-0.72701-165.8-12.061-59.588-34.078-68.468-13.014-100.22-16.574-20.115-2.2551-59.245 12.984-73.388 44.344 3.4722 27.608 18.111 32.098 44.281 31.986l356.06-1.5268c69.692-0.29885 56.335-8.4926 65.543-56.039-14.772-21.671-13.157 9.109-44.224-30.717z"/><rect id="rect5734" transform="translate(128,90)" clip-path="url(#clipPath5796)" ry="57" height="512" filter="url(#filter5740)" width="512" stroke="#000" y="0" x="0" stroke-width="20" fill="none"/></g>
 </g>
  <metadata>
    <rdf:RDF>
      <cc:Work>
        <dc:format>image/svg+xml</dc:format>
        <dc:type rdf:resource="http://purl.org/dc/dcmitype/StillImage"/>
        <cc:license rdf:resource="http://creativecommons.org/licenses/publicdomain/"/>
        <dc:publisher>
          <cc:Agent rdf:about="http://openclipart.org/">
            <dc:title>Openclipart</dc:title>
          </cc:Agent>
        </dc:publisher>
        <dc:title>lb</dc:title>
        <dc:date>2011-08-21T12:01:20</dc:date>
        <dc:description>country flag buttons (with ISO-3166-1 naming convention)</dc:description>
        <dc:source>http://openclipart.org/detail/156673/lb-by-koppi</dc:source>
        <dc:creator>
          <cc:Agent>
            <dc:title>koppi</dc:title>
          </cc:Agent>
        </dc:creator>
        <dc:subject>
          <rdf:Bag>
            <rdf:li>ISO3166-1</rdf:li>
            <rdf:li>button</rdf:li>
            <rdf:li>clip art</rdf:li>
            <rdf:li>clipart</rdf:li>
            <rdf:li>country</rdf:li>
            <rdf:li>flag</rdf:li>
            <rdf:li>flags</rdf:li>
            <rdf:li>squared</rdf:li>
          </rdf:Bag>
        </dc:subject>
      </cc:Work>
      <cc:License rdf:about="http://creativecommons.org/licenses/publicdomain/">
        <cc:permits rdf:resource="http://creativecommons.org/ns#Reproduction"/>
        <cc:permits rdf:resource="http://creativecommons.org/ns#Distribution"/>
        <cc:permits rdf:resource="http://creativecommons.org/ns#DerivativeWorks"/>
      </cc:License>
    </rdf:RDF>
  </metadata>
</svg>
